# xmcd CD database file
#
# Track frame offsets:
#	150
#	4766
#	9375
#	12770
#	36814
#	47797
#	72384
#	77841
#	108731
#	115224
#	133432
#	163321
#	169998
#	183202
#	199723
#	222159
#	235394
#	242879
#	255041
#	273404
#
# Disc length: 3757 seconds
#
# Revision: 0
# Processed by: cddbd v1.5.1PL2 Copyright (c) Steve Scherf et al.
# Submitted via: CDex 1.51
#
DISCID=190eab14
DTITLE=Eva and Sten Löfman - Drömnatt
DYEAR=2000
DGENRE=New Age
TTITLE0=Gayatri Mantra
TTITLE1=Jordgåva
TTITLE2=Gammelmor måne
TTITLE3=Wahkahn, Sskwan
TTITLE4=Locktoner
TTITLE5=Raga 1
TTITLE6=Ganesha
TTITLE7=Kothbiro
TTITLE8=Mbalu
TTITLE9=Jordpuls
TTITLE10=Biera biera
TTITLE11=Wawukona
TTITLE12=Ndje mukanie
TTITLE13=Zuluchant
TTITLE14=Jarabe
TTITLE15=Resan till Atitlán
TTITLE16=Månsilver och aftonguld
TTITLE17=Micmac-honouring song
TTITLE18=Drömceremoni i de fyra vindarnas riktning
TTITLE19=The unknowns
EXTD=YEAR: 2000
EXTT0=
EXTT1=
EXTT2=
EXTT3=
EXTT4=
EXTT5=
EXTT6=
EXTT7=
EXTT8=
EXTT9=
EXTT10=
EXTT11=
EXTT12=
EXTT13=
EXTT14=
EXTT15=
EXTT16=
EXTT17=
EXTT18=
EXTT19=
PLAYORDER=
